<?xml version="1.0" encoding="UTF-8" ?>
<!DOCTYPE svg PUBLIC "-//W3C//DTD SVG 1.1//EN" "http://www.w3.org/Graphics/SVG/1.1/DTD/svg11.dtd">
<svg width="640pt" height="640pt" viewBox="0 0 640 640" version="1.1" xmlns="http://www.w3.org/2000/svg">
<g id="#2a2c2eff">
<path fill="#2a2c2e" opacity="1.00" d=" M 0.00 0.00 L 640.00 0.00 L 640.00 640.00 L 0.00 640.00 L 0.00 0.00 M 225.73 197.63 C 225.79 222.50 225.60 247.38 225.71 272.26 C 229.64 272.34 233.57 272.33 237.50 272.36 C 237.69 260.84 237.51 249.31 237.64 237.78 C 241.44 231.28 250.55 228.06 257.42 231.58 C 261.18 233.56 262.24 238.09 262.23 242.01 C 262.25 252.08 262.28 262.16 262.24 272.23 C 266.23 272.38 270.21 272.33 274.20 272.30 C 274.26 261.86 274.24 251.42 274.21 240.99 C 274.21 234.71 272.08 228.03 266.98 224.05 C 262.46 220.65 256.44 220.02 250.97 220.65 C 245.66 221.25 241.16 224.49 237.48 228.16 C 237.60 217.99 237.64 207.82 237.40 197.65 C 233.51 197.75 229.62 197.72 225.73 197.63 M 161.61 211.31 C 168.98 211.21 176.35 211.34 183.73 211.28 C 183.71 231.60 183.73 251.92 183.74 272.24 C 187.90 272.31 192.06 272.33 196.22 272.31 C 196.23 251.96 196.20 231.60 196.25 211.25 C 203.74 211.21 211.24 211.44 218.73 211.13 C 218.65 207.81 218.63 204.50 218.65 201.18 C 199.64 201.15 180.62 201.24 161.61 201.11 C 161.42 204.50 161.36 207.91 161.61 211.31 M 287.01 231.03 C 281.84 238.37 281.67 248.06 283.78 256.48 C 286.21 265.58 294.87 271.93 303.96 273.23 C 312.27 274.12 320.81 273.16 328.59 270.03 C 328.17 266.97 327.67 263.92 327.24 260.86 C 319.30 264.04 309.84 266.13 301.78 262.23 C 296.97 259.86 294.56 254.73 294.29 249.55 C 306.43 249.55 318.57 249.58 330.71 249.49 C 331.54 240.60 329.80 230.45 322.26 224.76 C 311.52 216.97 294.28 219.71 287.01 231.03 M 365.65 292.78 C 356.87 316.75 348.15 340.75 339.10 364.63 C 343.25 364.70 347.40 364.70 351.56 364.67 C 353.77 358.24 356.02 351.81 358.45 345.45 C 367.92 345.67 377.39 345.44 386.87 345.61 C 388.82 352.01 391.59 358.14 393.27 364.63 C 397.52 364.70 401.77 364.66 406.02 364.61 C 397.41 340.58 388.48 316.66 379.45 292.79 C 374.85 293.17 370.24 293.06 365.65 292.78 M 137.37 294.39 C 130.91 296.84 126.18 303.08 125.65 309.98 C 125.16 315.89 127.25 322.37 132.20 325.94 C 139.77 331.76 149.98 332.52 157.57 338.28 C 160.99 340.59 161.43 345.24 160.46 348.93 C 158.74 353.49 153.61 355.51 149.07 355.80 C 141.45 356.53 134.08 354.01 127.21 350.99 C 126.48 354.49 125.56 357.96 125.16 361.53 C 134.19 365.45 144.34 366.70 154.07 365.28 C 161.32 364.02 169.01 360.15 171.78 352.90 C 175.06 345.37 173.56 335.31 166.71 330.25 C 159.42 324.32 149.77 322.89 141.77 318.26 C 136.16 315.10 136.97 305.48 143.10 303.36 C 151.43 300.23 160.60 302.78 168.57 305.85 C 169.05 302.34 169.42 298.82 169.78 295.31 C 159.47 291.71 147.75 290.31 137.37 294.39 M 181.71 304.34 C 185.92 304.57 190.14 304.42 194.35 304.40 C 194.39 300.45 194.39 296.49 194.39 292.54 C 190.34 292.58 186.29 292.81 182.25 292.53 C 181.53 296.41 182.33 300.42 181.71 304.34 M 206.66 323.64 C 201.99 330.98 201.72 340.29 203.71 348.55 C 206.07 357.86 215.13 365.50 224.98 364.70 C 230.96 365.00 236.62 362.38 240.66 358.05 C 240.50 362.69 241.14 367.62 238.98 371.92 C 236.95 375.96 232.37 377.97 228.04 378.26 C 221.30 379.24 214.83 376.71 208.48 374.86 C 208.03 378.05 207.53 381.23 207.23 384.43 C 217.23 388.18 228.70 389.31 238.87 385.62 C 246.99 382.77 252.17 374.43 252.32 366.00 C 252.55 348.73 252.20 331.47 252.45 314.20 C 248.86 313.77 245.24 313.77 241.66 314.21 C 241.61 315.88 241.55 317.55 241.49 319.22 C 239.06 317.40 236.82 315.19 233.92 314.14 C 224.15 310.70 211.88 314.42 206.66 323.64 M 274.50 320.22 C 274.24 318.15 273.98 316.10 273.71 314.05 C 270.33 313.87 266.95 314.08 263.57 314.14 C 263.47 330.96 263.69 347.77 263.47 364.59 C 267.49 364.75 271.52 364.66 275.55 364.58 C 275.27 352.83 275.48 341.08 275.50 329.33 C 279.42 324.49 285.75 321.45 292.02 322.92 C 296.74 323.58 299.99 328.34 299.75 332.94 C 299.61 343.46 299.87 353.99 299.60 364.50 C 303.61 364.85 307.64 364.67 311.66 364.66 C 311.51 353.24 311.84 341.80 311.51 330.39 C 311.34 322.17 305.21 314.23 296.81 313.24 C 288.68 311.37 280.56 314.93 274.50 320.22 M 413.70 320.70 C 409.50 325.80 407.19 332.42 407.43 339.03 C 407.15 347.93 410.89 357.60 418.99 362.06 C 423.64 364.96 429.35 364.93 434.62 364.37 C 438.81 363.79 442.12 360.98 445.37 358.51 C 445.53 363.81 445.91 369.83 442.19 374.12 C 437.87 378.76 430.85 378.93 425.02 377.97 C 420.87 377.58 417.07 375.77 413.01 374.97 C 412.78 378.15 412.44 381.32 412.11 384.50 C 417.28 386.10 422.52 387.84 428.00 387.77 C 435.82 388.12 444.41 386.86 450.41 381.40 C 455.62 376.41 457.20 368.92 457.15 361.96 C 457.09 346.02 457.23 330.08 457.14 314.15 C 453.61 313.73 450.06 313.90 446.53 314.23 C 446.43 315.94 446.33 317.64 446.24 319.35 C 442.99 316.25 439.13 313.65 434.60 312.96 C 426.95 311.95 418.76 314.79 413.70 320.70 M 469.27 324.33 C 464.99 331.28 464.65 339.94 466.24 347.74 C 468.28 357.00 476.63 364.08 485.90 365.39 C 494.44 366.49 503.39 365.66 511.32 362.17 C 510.69 359.18 510.35 356.15 509.87 353.14 C 502.09 356.01 493.14 358.44 485.20 354.82 C 480.07 352.74 477.23 347.21 477.27 341.85 C 489.29 342.04 501.32 342.26 513.35 342.15 C 513.88 334.07 513.14 324.93 507.02 318.94 C 496.49 308.69 476.63 311.68 469.27 324.33 M 182.30 314.13 C 182.41 330.95 182.30 347.77 182.35 364.58 C 186.18 364.58 190.00 364.59 193.83 364.66 C 193.96 347.81 193.80 330.96 193.87 314.11 C 190.01 314.12 186.15 314.13 182.30 314.13 Z" />
<path fill="#2a2c2e" opacity="1.00" d=" M 298.13 233.16 C 303.21 227.79 313.60 227.81 317.71 234.35 C 319.24 236.45 319.39 239.11 319.69 241.60 C 311.26 241.64 302.83 241.77 294.41 241.52 C 295.22 238.58 295.91 235.40 298.13 233.16 Z" />
<path fill="#2a2c2e" opacity="1.00" d=" M 372.44 304.04 C 375.24 314.96 380.34 325.15 383.01 336.10 C 375.78 336.04 368.53 336.40 361.31 335.95 C 365.19 325.37 369.28 314.86 372.44 304.04 Z" />
<path fill="#2a2c2e" opacity="1.00" d=" M 484.24 323.13 C 488.96 320.98 495.36 320.96 499.09 324.98 C 501.50 327.38 501.92 330.91 502.22 334.12 C 493.90 334.19 485.58 334.15 477.25 334.19 C 477.84 329.75 480.01 325.12 484.24 323.13 Z" />
<path fill="#2a2c2e" opacity="1.00" d=" M 219.08 326.09 C 224.95 320.39 235.38 321.41 240.55 327.59 C 240.29 334.72 240.38 341.85 240.39 348.98 C 236.83 353.61 230.87 356.70 224.97 355.26 C 219.92 354.47 215.89 350.04 215.19 345.04 C 214.11 338.65 214.18 330.97 219.08 326.09 Z" />
<path fill="#2a2c2e" opacity="1.00" d=" M 426.87 323.92 C 432.87 320.82 440.54 322.33 445.26 327.07 C 445.31 333.71 445.26 340.35 445.31 346.99 C 445.52 348.70 444.17 349.97 443.16 351.16 C 438.30 356.44 429.16 357.09 423.83 352.15 C 420.02 348.57 419.45 342.93 419.53 337.99 C 419.59 332.55 421.81 326.59 426.87 323.92 Z" />
</g>
<g id="#f0ebe5ff">
<path fill="#f0ebe5" opacity="1.00" d=" M 225.73 197.63 C 229.62 197.72 233.51 197.75 237.40 197.65 C 237.64 207.82 237.60 217.99 237.48 228.16 C 241.16 224.49 245.66 221.25 250.97 220.65 C 256.44 220.02 262.46 220.65 266.98 224.05 C 272.08 228.03 274.21 234.71 274.21 240.99 C 274.24 251.42 274.26 261.86 274.20 272.30 C 270.21 272.33 266.23 272.38 262.24 272.23 C 262.28 262.16 262.25 252.08 262.23 242.01 C 262.24 238.09 261.18 233.56 257.42 231.58 C 250.55 228.06 241.44 231.28 237.64 237.78 C 237.51 249.31 237.69 260.84 237.50 272.36 C 233.57 272.33 229.64 272.34 225.71 272.26 C 225.60 247.38 225.79 222.50 225.73 197.63 Z" />
<path fill="#f0ebe5" opacity="1.00" d=" M 161.61 211.31 C 161.36 207.91 161.42 204.50 161.61 201.11 C 180.62 201.24 199.64 201.15 218.65 201.18 C 218.63 204.50 218.65 207.81 218.73 211.13 C 211.24 211.44 203.74 211.21 196.25 211.25 C 196.20 231.60 196.23 251.96 196.22 272.31 C 192.06 272.33 187.90 272.31 183.74 272.24 C 183.73 251.92 183.71 231.60 183.73 211.28 C 176.35 211.34 168.98 211.21 161.61 211.31 Z" />
<path fill="#f0ebe5" opacity="1.00" d=" M 287.01 231.03 C 294.28 219.71 311.52 216.97 322.26 224.76 C 329.80 230.45 331.54 240.60 330.71 249.49 C 318.57 249.58 306.43 249.55 294.29 249.55 C 294.56 254.73 296.97 259.86 301.78 262.23 C 309.84 266.13 319.30 264.04 327.24 260.86 C 327.67 263.92 328.17 266.97 328.59 270.03 C 320.81 273.16 312.27 274.12 303.96 273.23 C 294.87 271.93 286.21 265.58 283.78 256.48 C 281.67 248.06 281.84 238.37 287.01 231.03 M 298.13 233.16 C 295.91 235.40 295.22 238.58 294.41 241.52 C 302.83 241.77 311.26 241.64 319.69 241.60 C 319.39 239.11 319.24 236.45 317.71 234.35 C 313.60 227.81 303.21 227.79 298.13 233.16 Z" />
<path fill="#f0ebe5" opacity="1.00" d=" M 365.65 292.78 C 370.24 293.06 374.85 293.17 379.45 292.79 C 388.48 316.66 397.41 340.58 406.02 364.61 C 401.77 364.66 397.52 364.70 393.27 364.63 C 391.59 358.14 388.82 352.01 386.87 345.61 C 377.39 345.44 367.92 345.67 358.45 345.45 C 356.02 351.81 353.77 358.24 351.56 364.67 C 347.40 364.70 343.25 364.70 339.10 364.63 C 348.15 340.75 356.87 316.75 365.65 292.78 M 372.44 304.04 C 369.28 314.86 365.19 325.37 361.31 335.95 C 368.53 336.40 375.78 336.04 383.01 336.10 C 380.34 325.15 375.24 314.96 372.44 304.04 Z" />
<path fill="#f0ebe5" opacity="1.00" d=" M 137.37 294.39 C 147.75 290.31 159.47 291.71 169.78 295.31 C 169.42 298.82 169.05 302.34 168.57 305.85 C 160.60 302.78 151.43 300.23 143.10 303.36 C 136.97 305.48 136.16 315.10 141.77 318.26 C 149.77 322.89 159.42 324.32 166.71 330.25 C 173.56 335.31 175.06 345.37 171.78 352.90 C 169.01 360.15 161.32 364.02 154.07 365.28 C 144.34 366.70 134.19 365.45 125.16 361.53 C 125.56 357.96 126.48 354.49 127.21 350.99 C 134.08 354.01 141.45 356.53 149.07 355.80 C 153.61 355.51 158.74 353.49 160.46 348.93 C 161.43 345.24 160.99 340.59 157.57 338.28 C 149.98 332.52 139.77 331.76 132.20 325.94 C 127.25 322.37 125.16 315.89 125.65 309.98 C 126.18 303.08 130.91 296.84 137.37 294.39 Z" />
<path fill="#f0ebe5" opacity="1.00" d=" M 181.71 304.34 C 182.33 300.42 181.53 296.41 182.25 292.53 C 186.29 292.81 190.34 292.58 194.39 292.54 C 194.39 296.49 194.39 300.45 194.35 304.40 C 190.14 304.42 185.92 304.57 181.71 304.34 Z" />
<path fill="#f0ebe5" opacity="1.00" d=" M 206.66 323.64 C 211.88 314.42 224.15 310.70 233.92 314.14 C 236.82 315.19 239.06 317.40 241.49 319.22 C 241.55 317.55 241.61 315.88 241.66 314.21 C 245.24 313.77 248.86 313.77 252.45 314.20 C 252.20 331.47 252.55 348.73 252.32 366.00 C 252.17 374.43 246.99 382.77 238.87 385.62 C 228.70 389.31 217.23 388.18 207.23 384.43 C 207.53 381.23 208.03 378.05 208.48 374.86 C 214.83 376.71 221.30 379.24 228.04 378.26 C 232.37 377.97 236.95 375.96 238.98 371.92 C 241.14 367.62 240.50 362.69 240.66 358.05 C 236.62 362.38 230.96 365.00 224.98 364.70 C 215.13 365.50 206.07 357.86 203.71 348.55 C 201.72 340.29 201.99 330.98 206.66 323.64 M 219.08 326.09 C 214.18 330.97 214.11 338.65 215.19 345.04 C 215.89 350.04 219.92 354.47 224.97 355.26 C 230.87 356.70 236.83 353.61 240.39 348.98 C 240.38 341.85 240.29 334.72 240.55 327.59 C 235.38 321.41 224.95 320.39 219.08 326.09 Z" />
<path fill="#f0ebe5" opacity="1.00" d=" M 274.50 320.22 C 280.56 314.93 288.68 311.37 296.81 313.24 C 305.21 314.23 311.34 322.17 311.51 330.39 C 311.84 341.80 311.51 353.24 311.66 364.66 C 307.64 364.67 303.61 364.85 299.60 364.50 C 299.87 353.99 299.61 343.46 299.75 332.94 C 299.99 328.34 296.74 323.58 292.02 322.92 C 285.75 321.45 279.42 324.49 275.50 329.33 C 275.48 341.08 275.27 352.83 275.55 364.58 C 271.52 364.66 267.49 364.75 263.47 364.59 C 263.69 347.77 263.47 330.96 263.57 314.14 C 266.95 314.08 270.33 313.87 273.71 314.05 C 273.98 316.10 274.24 318.15 274.50 320.22 Z" />
<path fill="#f0ebe5" opacity="1.00" d=" M 413.70 320.70 C 418.76 314.79 426.95 311.95 434.60 312.96 C 439.13 313.65 442.99 316.25 446.24 319.35 C 446.33 317.64 446.43 315.94 446.53 314.23 C 450.06 313.90 453.61 313.73 457.14 314.15 C 457.23 330.08 457.09 346.02 457.15 361.96 C 457.20 368.92 455.62 376.41 450.41 381.40 C 444.41 386.86 435.82 388.12 428.00 387.77 C 422.52 387.84 417.28 386.10 412.11 384.50 C 412.44 381.32 412.78 378.15 413.01 374.97 C 417.07 375.77 420.87 377.58 425.02 377.97 C 430.85 378.93 437.87 378.76 442.19 374.12 C 445.91 369.83 445.53 363.81 445.37 358.51 C 442.12 360.98 438.81 363.79 434.62 364.37 C 429.35 364.93 423.64 364.96 418.99 362.06 C 410.89 357.60 407.15 347.93 407.43 339.03 C 407.19 332.42 409.50 325.80 413.70 320.70 M 426.87 323.92 C 421.81 326.59 419.59 332.55 419.53 337.99 C 419.45 342.93 420.02 348.57 423.83 352.15 C 429.16 357.09 438.30 356.44 443.16 351.16 C 444.17 349.97 445.52 348.70 445.31 346.99 C 445.26 340.35 445.31 333.71 445.26 327.07 C 440.54 322.33 432.87 320.82 426.87 323.92 Z" />
<path fill="#f0ebe5" opacity="1.00" d=" M 469.27 324.33 C 476.63 311.68 496.49 308.69 507.02 318.94 C 513.14 324.93 513.88 334.07 513.35 342.15 C 501.32 342.26 489.29 342.04 477.27 341.85 C 477.23 347.21 480.07 352.74 485.20 354.82 C 493.14 358.44 502.09 356.01 509.87 353.14 C 510.35 356.15 510.69 359.18 511.32 362.17 C 503.39 365.66 494.44 366.49 485.90 365.39 C 476.63 364.08 468.28 357.00 466.24 347.74 C 464.65 339.94 464.99 331.28 469.27 324.33 M 484.24 323.13 C 480.01 325.12 477.84 329.75 477.25 334.19 C 485.58 334.15 493.90 334.19 502.22 334.12 C 501.92 330.91 501.50 327.38 499.09 324.98 C 495.36 320.96 488.96 320.98 484.24 323.13 Z" />
<path fill="#f0ebe5" opacity="1.00" d=" M 182.30 314.13 C 186.15 314.13 190.01 314.12 193.87 314.11 C 193.80 330.96 193.96 347.81 193.83 364.66 C 190.00 364.59 186.18 364.58 182.35 364.58 C 182.30 347.77 182.41 330.95 182.30 314.13 Z" />
</g>
</svg>
